<?xml version="1.0" encoding="utf-8"?>
<!-- Generator: Adobe Illustrator 16.0.0, SVG Export Plug-In . SVG Version: 6.00 Build 0)  -->
<!DOCTYPE svg PUBLIC "-//W3C//DTD SVG 1.1//EN" "http://www.w3.org/Graphics/SVG/1.1/DTD/svg11.dtd">
<svg version="1.1" id="Слой_1" xmlns="http://www.w3.org/2000/svg" xmlns:xlink="http://www.w3.org/1999/xlink" x="0px" y="0px"
	 width="1213.54px" height="1000.62px" viewBox="0 0 1213.54 1000.62" enable-background="new 0 0 1213.54 1000.62"
	 xml:space="preserve">
<g>
	<defs>
		<polygon id="SVGID_1_" points="294.662,890.306 265.36,890.306 283.36,976.953 294.662,976.953 305.965,976.953 323.965,890.306 
					"/>
	</defs>
	<clipPath id="SVGID_2_">
		<use xlink:href="#SVGID_1_"  overflow="visible"/>
	</clipPath>
	
		<linearGradient id="SVGID_3_" gradientUnits="userSpaceOnUse" x1="0" y1="1000.6201" x2="1" y2="1000.6201" gradientTransform="matrix(-65.0077 0 0 65.0077 327.3438 -64114.3828)">
		<stop  offset="0" style="stop-color:#6C6361"/>
		<stop  offset="1" style="stop-color:#534B48"/>
	</linearGradient>
	<rect x="265.36" y="890.306" clip-path="url(#SVGID_2_)" fill="url(#SVGID_3_)" width="58.605" height="86.647"/>
</g>
<g>
	<defs>
		<path id="SVGID_4_" d="M147.279,351.004c0,0-27.543,97.5-21.247,146.75c6.297,49.25,16.297,102.583,65.297,116.916
			c49,14.334,123.999-28.525,123.999-28.525V323.004L147.279,351.004z"/>
	</defs>
	<clipPath id="SVGID_5_">
		<use xlink:href="#SVGID_4_"  overflow="visible"/>
	</clipPath>
	
		<linearGradient id="SVGID_6_" gradientUnits="userSpaceOnUse" x1="0" y1="1000.6963" x2="1" y2="1000.6963" gradientTransform="matrix(52.6667 -79.3333 -79.3333 -52.6667 79584.2813 53212.4531)">
		<stop  offset="0" style="stop-color:#FDD3B5"/>
		<stop  offset="0.687" style="stop-color:#F2B48B"/>
		<stop  offset="1" style="stop-color:#D48C68"/>
	</linearGradient>
	<polygon clip-path="url(#SVGID_5_)" fill="url(#SVGID_6_)" points="-21.265,535.398 179.568,232.878 456.329,416.61 
		255.496,719.131 	"/>
</g>
<g>
	<defs>
		<path id="SVGID_7_" d="M108.662,371.003c-6.333,16.001,0,35.501,0,35.501s-9.333,1.5-14.333,14.5c-5,12.999,0,30.5,0,30.5
			s-8,3-13.5,19.5s4.5,29.5,4.5,29.5s-8.5,6.281-16.5,24.391s0,31.609,0,31.609s-6,2-11.5,15s-4,66.5-4,66.5l18.5,6.5
			c0,0,10.429-2.5,21.714-11.5c11.286-9,8.286-28.001,8.286-28.001s0.481-2.499,10.241-12.999c9.759-10.5,27.926-179.5,27.926-179.5
			l6.537-56.5l-12.588-5C133.945,351.004,114.996,355.004,108.662,371.003"/>
	</defs>
	<clipPath id="SVGID_8_">
		<use xlink:href="#SVGID_7_"  overflow="visible"/>
	</clipPath>
	
		<linearGradient id="SVGID_9_" gradientUnits="userSpaceOnUse" x1="0" y1="1000.6006" x2="1" y2="1000.6006" gradientTransform="matrix(-90 257 257 90 -257021.5 -89651.9453)">
		<stop  offset="0" style="stop-color:#6C6361"/>
		<stop  offset="1" style="stop-color:#534B48"/>
	</linearGradient>
	<polygon clip-path="url(#SVGID_8_)" fill="url(#SVGID_9_)" points="238.087,383.066 136.188,674.046 -39.725,612.442 
		62.174,321.462 	"/>
</g>
<g>
	<defs>
		<path id="SVGID_10_" d="M48.829,662.004c0,0-30.5,6.5-43.5,41.5s1,61.5,8,66.999c7,5.5,52.5-17.499,52.5-61.499
			s-3.5-50.001-3.5-50.001L48.829,662.004z"/>
	</defs>
	<clipPath id="SVGID_11_">
		<use xlink:href="#SVGID_10_"  overflow="visible"/>
	</clipPath>
	
		<linearGradient id="SVGID_12_" gradientUnits="userSpaceOnUse" x1="0" y1="1000.585" x2="1" y2="1000.585" gradientTransform="matrix(65.8289 0 0 -65.8289 0 66584.875)">
		<stop  offset="0" style="stop-color:#6C6361"/>
		<stop  offset="1" style="stop-color:#534B48"/>
	</linearGradient>
	<rect x="-7.671" y="659.003" clip-path="url(#SVGID_11_)" fill="url(#SVGID_12_)" width="73.5" height="117"/>
</g>
<g>
	<defs>
		<rect id="SVGID_13_" y="0.004" width="1213.54" height="1000.616"/>
	</defs>
	<clipPath id="SVGID_14_">
		<use xlink:href="#SVGID_13_"  overflow="visible"/>
	</clipPath>
	<path clip-path="url(#SVGID_14_)" fill="#F49E47" d="M33.563,638.872c-10.345,19.397,0.159,30.247,21.19,39.699
		c21.03,9.453,27.331,9.453,34.893-8.822c7.562-18.273,11.343-28.986-15.123-37.809C48.055,623.118,43.645,619.968,33.563,638.872"
		/>
	<path clip-path="url(#SVGID_14_)" fill="#FFD248" d="M36.329,641.004c-8.208,15.391,0.126,24,16.813,31.5s21.687,7.5,27.687-7
		s9-23-12-30S44.329,626.004,36.329,641.004"/>
</g>
<g>
	<defs>
		<path id="SVGID_15_" d="M99.837,475.754c9.224,13.75,21.742,18.25,21.742,18.25l2.25-13.5c0,0-10.75,0.25-19.5-10.2
			c-5.063-6.047-10-18.8-10-18.8S93.706,466.615,99.837,475.754"/>
	</defs>
	<clipPath id="SVGID_16_">
		<use xlink:href="#SVGID_15_"  overflow="visible"/>
	</clipPath>
	
		<linearGradient id="SVGID_17_" gradientUnits="userSpaceOnUse" x1="0" y1="1000.6201" x2="1" y2="1000.6201" gradientTransform="matrix(29.5177 0 0 -29.5177 94.3125 30008.7891)">
		<stop  offset="0" style="stop-color:#514B49"/>
		<stop  offset="1" style="stop-color:#3A3432"/>
	</linearGradient>
	<rect x="93.706" y="451.504" clip-path="url(#SVGID_16_)" fill="url(#SVGID_17_)" width="30.123" height="42.5"/>
</g>
<g>
	<defs>
		<path id="SVGID_18_" d="M114.596,430.754c9.224,13.75,21.741,18.25,21.741,18.25l2.25-13.5c0,0-10.749,0.25-19.499-10.2
			c-5.063-6.047-10-18.8-10-18.8S108.465,421.615,114.596,430.754"/>
	</defs>
	<clipPath id="SVGID_19_">
		<use xlink:href="#SVGID_18_"  overflow="visible"/>
	</clipPath>
	
		<linearGradient id="SVGID_20_" gradientUnits="userSpaceOnUse" x1="0" y1="1000.6201" x2="1" y2="1000.6201" gradientTransform="matrix(29.5177 0 0 -29.5177 109.0625 29963.7891)">
		<stop  offset="0" style="stop-color:#514B49"/>
		<stop  offset="1" style="stop-color:#3A3432"/>
	</linearGradient>
	<rect x="108.465" y="406.504" clip-path="url(#SVGID_19_)" fill="url(#SVGID_20_)" width="30.122" height="42.5"/>
</g>
<g>
	<defs>
		<path id="SVGID_21_" d="M90.605,524.754c9.224,13.75,28.224,28,28.224,28l1.5-13.001c0,0-16.483-9.999-25.233-20.449
			c-5.063-6.047-10-18.8-10-18.8S84.474,515.615,90.605,524.754"/>
	</defs>
	<clipPath id="SVGID_22_">
		<use xlink:href="#SVGID_21_"  overflow="visible"/>
	</clipPath>
	
		<linearGradient id="SVGID_23_" gradientUnits="userSpaceOnUse" x1="0" y1="1000.6201" x2="1" y2="1000.6201" gradientTransform="matrix(35.2504 0 0 -35.2504 85.0625 35798.8711)">
		<stop  offset="0" style="stop-color:#514B49"/>
		<stop  offset="1" style="stop-color:#3A3432"/>
	</linearGradient>
	<rect x="84.474" y="500.504" clip-path="url(#SVGID_22_)" fill="url(#SVGID_23_)" width="35.855" height="52.25"/>
</g>
<g>
	<defs>
		<path id="SVGID_24_" d="M74.605,580.754c9.224,13.75,27.224,24.249,27.224,24.249l8.435-11.032c0,0-22.418-8.217-31.168-18.668
			c-5.063-6.047-9.999-18.799-9.999-18.799S68.474,571.614,74.605,580.754"/>
	</defs>
	<clipPath id="SVGID_25_">
		<use xlink:href="#SVGID_24_"  overflow="visible"/>
	</clipPath>
	
		<linearGradient id="SVGID_26_" gradientUnits="userSpaceOnUse" x1="0" y1="1000.6201" x2="1" y2="1000.6201" gradientTransform="matrix(41.1863 0 0 -41.1863 69.0938 41792.5742)">
		<stop  offset="0" style="stop-color:#514B49"/>
		<stop  offset="1" style="stop-color:#3A3432"/>
	</linearGradient>
	<rect x="68.474" y="556.504" clip-path="url(#SVGID_25_)" fill="url(#SVGID_26_)" width="41.79" height="48.499"/>
</g>
<g>
	<defs>
		<path id="SVGID_27_" d="M139.996,356.004c-17.448,91.559-31.717,216.745-27.334,273.333c7.333,94.667,41.333,106,96,149.333
			c54.667,43.334,86,86.819,86,86.819V540.004c0,0-91.058,79.452-129.333,21.333c-24-36.442-16.972-120.417-9.131-205.333H139.996z"
			/>
	</defs>
	<clipPath id="SVGID_28_">
		<use xlink:href="#SVGID_27_"  overflow="visible"/>
	</clipPath>
	
		<linearGradient id="SVGID_29_" gradientUnits="userSpaceOnUse" x1="0" y1="1000.6221" x2="1" y2="1000.6221" gradientTransform="matrix(-181.1038 0 0 181.1038 292.375 -180605.3906)">
		<stop  offset="0" style="stop-color:#6C6361"/>
		<stop  offset="1" style="stop-color:#534B48"/>
	</linearGradient>
	<rect x="108.279" y="356.004" clip-path="url(#SVGID_28_)" fill="url(#SVGID_29_)" width="186.383" height="509.485"/>
</g>
<g>
	<defs>
		<path id="SVGID_30_" d="M156.662,350.104l-3.334,47.899c0,0,41.296,6.093,62.501,15.001c30.946,13,37.5,25,37.5,74.999
			c0,50.001-19.888,82.986,41.333,82.986c42.667,0,40.667-220.885,40.667-220.885H156.662z"/>
	</defs>
	<clipPath id="SVGID_31_">
		<use xlink:href="#SVGID_30_"  overflow="visible"/>
	</clipPath>
	
		<linearGradient id="SVGID_32_" gradientUnits="userSpaceOnUse" x1="0" y1="1000.625" x2="1" y2="1000.625" gradientTransform="matrix(0 171.9291 171.9291 0 -171791.3125 365.7451)">
		<stop  offset="0" style="stop-color:#FDD3B5"/>
		<stop  offset="0.687" style="stop-color:#F2B48B"/>
		<stop  offset="1" style="stop-color:#D48C68"/>
	</linearGradient>
	<rect x="153.328" y="350.104" clip-path="url(#SVGID_31_)" fill="url(#SVGID_32_)" width="184.001" height="220.885"/>
</g>
<g>
	<defs>
		<rect id="SVGID_33_" y="0.004" width="1213.54" height="1000.616"/>
	</defs>
	<clipPath id="SVGID_34_">
		<use xlink:href="#SVGID_33_"  overflow="visible"/>
	</clipPath>
	<path clip-path="url(#SVGID_34_)" fill="#F49E47" d="M135.924,128.604l-0.004,0.004c-5.429,5.429-14.313,5.429-19.743,0
		L27.532,39.964c-5.429-5.429-5.429-14.313,0-19.742l0.005-0.004c5.429-5.43,14.313-5.43,19.742,0l88.645,88.645
		C141.353,114.292,141.353,123.176,135.924,128.604"/>
	<path clip-path="url(#SVGID_34_)" fill="#FFD248" d="M135.924,168.403l-0.004,0.004c-5.429,5.429-14.313,5.429-19.743,0
		L27.532,79.762c-5.429-5.429-5.429-14.313,0-19.742l0.005-0.004c5.429-5.43,14.313-5.43,19.742,0l88.645,88.645
		C141.353,154.09,141.353,162.974,135.924,168.403"/>
	<path clip-path="url(#SVGID_34_)" fill="#F49E47" d="M135.924,208.202l-0.004,0.004c-5.429,5.429-14.313,5.429-19.743,0
		l-88.645-88.645c-5.429-5.429-5.429-14.313,0-19.742l0.005-0.004c5.429-5.43,14.313-5.43,19.742,0l88.645,88.645
		C141.353,193.889,141.353,202.772,135.924,208.202"/>
	<path clip-path="url(#SVGID_34_)" fill="#FFD248" d="M135.924,248l-0.004,0.004c-5.429,5.429-14.313,5.429-19.743,0l-88.645-88.645
		c-5.429-5.429-5.429-14.313,0-19.742l0.005-0.004c5.429-5.43,14.313-5.43,19.742,0l88.645,88.645
		C141.353,233.687,141.353,242.571,135.924,248"/>
	<path clip-path="url(#SVGID_34_)" fill="#F49E47" d="M135.924,287.798l-0.004,0.004c-5.429,5.429-14.313,5.429-19.743,0
		l-88.645-88.645c-5.429-5.429-5.429-14.313,0-19.742l0.005-0.004c5.429-5.43,14.313-5.43,19.742,0l88.645,88.646
		C141.353,273.485,141.353,282.369,135.924,287.798"/>
	<path clip-path="url(#SVGID_34_)" fill="#F49E47" d="M126.036,338.795h-0.006c-7.678,0-13.96-6.282-13.96-13.96V118.631
		c0-7.678,6.282-13.96,13.96-13.96h0.006c7.678,0,13.96,6.282,13.96,13.96v206.205C139.996,332.514,133.713,338.795,126.036,338.795
		"/>
	<path clip-path="url(#SVGID_34_)" fill="#FFD248" d="M127.996,304.67c0-76.583,62.083-138.667,138.667-138.667V304.67H127.996"/>
	<path clip-path="url(#SVGID_34_)" fill="#FFE766" d="M153.329,304.67c0-62.592,50.741-113.333,113.333-113.333V304.67H153.329"/>
	<path clip-path="url(#SVGID_34_)" fill="#FFD248" d="M170.722,304.67c0-52.986,42.954-95.94,95.94-95.94v95.94H170.722"/>
	<path clip-path="url(#SVGID_34_)" fill="#F49E47" d="M282.662,358.67h-162c-6.6,0-12-5.4-12-12v-30.667c0-6.6,5.4-12,12-12h162
		c6.6,0,12,5.4,12,12v30.667C294.662,353.271,289.262,358.67,282.662,358.67"/>
	<path clip-path="url(#SVGID_34_)" fill="#FFD248" d="M160.612,331.337c0,7.364-5.97,13.333-13.333,13.333
		c-7.364,0-13.334-5.969-13.334-13.333c0-7.364,5.97-13.333,13.334-13.333C154.642,318.004,160.612,323.973,160.612,331.337"/>
	<path clip-path="url(#SVGID_34_)" fill="#FFD248" d="M210.36,331.337c0,7.364-5.97,13.333-13.333,13.333
		c-7.364,0-13.334-5.969-13.334-13.333c0-7.364,5.97-13.333,13.334-13.333C204.39,318.004,210.36,323.973,210.36,331.337"/>
	<path clip-path="url(#SVGID_34_)" fill="#FFD248" d="M260.108,331.337c0,7.364-5.97,13.333-13.333,13.333
		c-7.364,0-13.334-5.969-13.334-13.333c0-7.364,5.97-13.333,13.334-13.333C254.138,318.004,260.108,323.973,260.108,331.337"/>
</g>
<g>
	<defs>
		<path id="SVGID_35_" d="M279.662,134.671c-7.15,0-13,5.85-13,12.999c0,0,0,196.086,0,212.086c0,30.914,28,41.581,28,41.581
			V134.671H279.662z"/>
	</defs>
	<clipPath id="SVGID_36_">
		<use xlink:href="#SVGID_35_"  overflow="visible"/>
	</clipPath>
	
		<linearGradient id="SVGID_37_" gradientUnits="userSpaceOnUse" x1="0" y1="1000.6191" x2="1" y2="1000.6191" gradientTransform="matrix(0 -184.1738 -184.1738 0 184568.6563 349.9951)">
		<stop  offset="0" style="stop-color:#6C6361"/>
		<stop  offset="1" style="stop-color:#534B48"/>
	</linearGradient>
	<rect x="266.662" y="134.671" clip-path="url(#SVGID_36_)" fill="url(#SVGID_37_)" width="28" height="266.666"/>
</g>
<g>
	<defs>
		<rect id="SVGID_38_" y="0.004" width="1213.54" height="1000.616"/>
	</defs>
	<clipPath id="SVGID_39_">
		<use xlink:href="#SVGID_38_"  overflow="visible"/>
	</clipPath>
	<path clip-path="url(#SVGID_39_)" fill="#FCCBA8" d="M294.662,590.65c0,0-12-1.979-32.667,4.688
		c-20.666,6.666-32.666,19.333-32.666,19.333h65.333V590.65z"/>
	<path clip-path="url(#SVGID_39_)" fill="#FFFFFF" d="M233.916,450.486c0,10.945-14.494,19.818-32.373,19.818
		c-17.88,0-32.374-8.873-32.374-19.818s14.494-19.818,32.374-19.818C219.421,430.668,233.916,439.541,233.916,450.486"/>
	<path clip-path="url(#SVGID_39_)" fill="#6EA3CE" d="M223.184,450.486c0,10.945-8.873,19.818-19.818,19.818
		c-10.945,0-19.818-8.873-19.818-19.818s8.873-19.818,19.818-19.818C214.311,430.668,223.184,439.541,223.184,450.486"/>
	<path clip-path="url(#SVGID_39_)" fill="#FFFFFF" d="M214.676,445.17c0,3.31-2.684,5.994-5.994,5.994
		c-3.311,0-5.994-2.684-5.994-5.994s2.683-5.994,5.994-5.994C211.992,439.176,214.676,441.86,214.676,445.17"/>
	<path clip-path="url(#SVGID_39_)" fill="#9FC6E9" d="M670.586,770.472V572.681h2.786c17.832,0,35.664-0.079,53.496,0.023
		c17.532,0.1,34.606,2.733,50.755,9.956c23.979,10.724,40.754,28.217,49.679,53.038c5.444,15.141,6.881,30.824,5.463,46.714
		c-1.793,20.09-8.479,38.404-21.646,53.962c-10.146,11.989-22.799,20.547-37.402,26.238c-9.571,3.73-19.479,6.186-29.711,7.058
		c-24.201,2.062-48.458,0.588-72.688,0.98C671.159,770.652,670.998,770.575,670.586,770.472 M696.961,748.267
		c0.789,0.063,1.361,0.147,1.934,0.148c9.582,0.008,19.164,0.044,28.745-0.004c15.634-0.079,30.554-3.063,44.14-11.202
		c16.376-9.81,26.676-24.199,31.593-42.502c3.146-11.714,3.693-23.604,2.062-35.644c-1.578-11.638-5.22-22.525-11.886-32.182
		c-14.255-20.646-34.834-29.98-59.188-31.572c-11.618-0.76-23.317-0.304-34.979-0.388c-0.795-0.006-1.59,0.077-2.419,0.121V748.267z
		"/>
	<path clip-path="url(#SVGID_39_)" fill="#9FC6E9" d="M1032.354,608.069c-7.826-2.955-15.292-6.229-23.032-8.606
		c-19.394-5.958-39.135-7.866-59.027-2.723c-22.222,5.744-38.871,18.813-48.25,39.877c-10.773,24.194-10.367,48.703,1.25,72.546
		c8.455,17.351,22.312,29.127,40.478,35.745c14.848,5.409,30.104,5.98,45.506,3.357c6.438-1.097,12.739-2.988,19.106-4.504
		c2.133-0.507,2.926-1.587,2.907-3.994c-0.14-17.829-0.075-35.661-0.075-53.492c0-0.979,0-1.956,0-3.094h25.714v2.69
		c0,23.497-0.033,46.994,0.06,70.491c0.009,2.018-0.705,2.905-2.386,3.716c-15.607,7.52-32.129,11.555-49.311,13.146
		c-14.111,1.308-28.055,0.602-41.852-2.933c-16.254-4.163-30.723-11.614-43.107-22.931c-18.265-16.688-28.414-37.562-31.488-61.988
		c-2.331-18.516-0.221-36.532,6.79-53.824c6.776-16.711,17.538-30.467,32.017-41.273c13.163-9.823,27.969-15.948,44.027-18.875
		c16.462-3,32.96-2.621,49.341,0.928c10.177,2.205,20.006,5.444,29.371,10.054c1.426,0.702,2.039,1.468,2.013,3.17
		C1032.287,593.124,1032.354,600.697,1032.354,608.069"/>
	<polygon clip-path="url(#SVGID_39_)" fill="#9FC6E9" points="522.978,594.807 522.978,659.197 603.067,659.197 603.067,681.57 
		523.022,681.57 523.022,748.403 621.981,748.403 621.981,770.562 496.614,770.562 496.614,572.885 617.808,572.885 
		617.808,594.807 	"/>
	<polygon clip-path="url(#SVGID_39_)" fill="#9FC6E9" points="1209.271,594.906 1114.486,594.906 1114.486,659.127 
		1194.536,659.127 1194.536,681.5 1114.554,681.5 1114.554,748.415 1213.54,748.415 1213.54,770.522 1088.145,770.522 
		1088.145,572.827 1209.271,572.827 	"/>
</g>
<g>
	<defs>
		<path id="SVGID_40_" d="M833.344,314.732c-4.747,0.093-9.498,0.034-14.247,0.033h-10.05v211.2h27.958V363.359
			c1.04,1.343,1.701,2.144,2.306,2.983c37.894,52.567,75.789,105.131,113.632,157.734c1.109,1.545,2.22,2.103,4.085,2.074
			c7.08-0.11,14.163-0.044,21.244-0.044h2.574V314.897h-27.918v162.746c-3.832-5.317-7.229-10.028-10.625-14.74
			c-35.169-48.787-70.343-97.569-105.474-146.383c-0.914-1.27-1.844-1.79-3.349-1.79C833.435,314.73,833.39,314.731,833.344,314.732
			"/>
	</defs>
	<clipPath id="SVGID_41_">
		<use xlink:href="#SVGID_40_"  overflow="visible"/>
	</clipPath>
	
		<linearGradient id="SVGID_42_" gradientUnits="userSpaceOnUse" x1="0" y1="1000.6201" x2="1" y2="1000.6201" gradientTransform="matrix(0 -214.0841 -214.0841 0 215111.8438 523.9951)">
		<stop  offset="0" style="stop-color:#6C6361"/>
		<stop  offset="1" style="stop-color:#534B48"/>
	</linearGradient>
	<rect x="809.047" y="314.73" clip-path="url(#SVGID_41_)" fill="url(#SVGID_42_)" width="171.799" height="211.449"/>
</g>
<g>
	<defs>
		<path id="SVGID_43_" d="M626.674,314.827c-0.895,0.007-2.004,0.676-2.637,1.377c-7.147,7.911-14.223,15.887-21.315,23.848
			c-21.389,24.005-42.775,48.013-64.165,72.018c-4.528,5.081-9.066,10.152-13.6,15.227c-0.198-0.072-0.396-0.145-0.594-0.219
			V314.972h-27.749V525.9h27.869v-3.202c0-19.664-0.032-39.328,0.068-58.992c0.008-1.398,0.652-3.1,1.583-4.138
			c6.841-7.627,13.834-15.119,20.775-22.657c4.904-5.325,9.805-10.654,14.824-16.109c0.474,0.793,0.878,1.413,1.229,2.062
			c9.676,17.907,19.262,35.864,29.054,53.709c5.831,10.628,11.657,21.284,18.099,31.543c4.934,7.855,11.858,13.911,20.543,17.637
			c11.238,4.822,22.804,4.6,34.521,2.206c1.948-0.397,2.694-1.148,2.637-3.282c-0.175-6.328-0.059-12.664-0.067-18.997
			c-0.001-0.803-0.074-1.605-0.122-2.593c-0.763,0.155-1.307,0.332-1.858,0.366c-5.29,0.319-10.655,1.324-15.854,0.767
			c-10.001-1.071-16.585-7.443-21.228-15.973c-15.569-28.604-31.096-57.231-46.671-85.831c-0.659-1.21-0.614-1.955,0.365-3.018
			c24.604-26.719,49.165-53.478,73.73-80.232c1.198-1.307,2.365-2.644,3.724-4.165c-0.705-0.139-0.935-0.223-1.166-0.223
			c-4.907-0.004-9.812-0.014-14.718-0.014C638.192,314.764,632.432,314.777,626.674,314.827"/>
	</defs>
	<clipPath id="SVGID_44_">
		<use xlink:href="#SVGID_43_"  overflow="visible"/>
	</clipPath>
	
		<linearGradient id="SVGID_45_" gradientUnits="userSpaceOnUse" x1="0" y1="1000.6201" x2="1" y2="1000.6201" gradientTransform="matrix(0 -214.0841 -214.0841 0 214799.0938 523.9951)">
		<stop  offset="0" style="stop-color:#6C6361"/>
		<stop  offset="1" style="stop-color:#534B48"/>
	</linearGradient>
	<rect x="496.614" y="314.764" clip-path="url(#SVGID_44_)" fill="url(#SVGID_45_)" width="171.26" height="215.811"/>
</g>
<g>
	<defs>
		<path id="SVGID_46_" d="M1120.873,313.589c-14.012,2.617-27.162,7.619-39.256,15.202c-12.58,7.888-23.105,17.984-31.322,30.362
			c-8.715,13.127-14.213,27.526-16.532,43.14c-3.475,23.401-0.698,45.903,9.517,67.357c7.07,14.85,17.228,27.218,30.259,37.208
			c17.091,13.103,36.627,20.014,57.884,22.158c11.049,1.115,22.131,0.68,33.143-0.909c15.869-2.292,31.233-6.273,45.709-13.376
			c1.883-0.926,2.425-1.977,2.419-3.971c-0.063-25.082-0.041-50.165-0.041-75.247v-2.787h-27.555v2.877
			c0,19.415-0.021,38.832,0.036,58.248c0.006,1.758-0.476,2.665-2.199,3.277c-16.842,5.982-34.164,7.836-51.854,5.77
			c-13.779-1.61-26.395-6.516-37.633-14.734c-15.234-11.14-24.954-26.056-29.751-44.197c-3.361-12.71-3.777-25.607-1.777-38.602
			c2.235-14.517,7.687-27.652,17.033-39.016c14.688-17.855,34.153-26.663,56.765-28.56c19.158-1.607,37.813,1.493,55.787,8.344
			c5.332,2.031,10.54,4.387,16.147,6.737c0-8.017-0.12-15.761,0.07-23.496c0.061-2.474-0.778-3.683-2.937-4.694
			c-14.662-6.869-30.025-11.054-46.136-12.667c-4.503-0.451-8.992-0.677-13.474-0.677
			C1137.038,311.336,1128.936,312.083,1120.873,313.589"/>
	</defs>
	<clipPath id="SVGID_47_">
		<use xlink:href="#SVGID_46_"  overflow="visible"/>
	</clipPath>
	
		<linearGradient id="SVGID_48_" gradientUnits="userSpaceOnUse" x1="0" y1="1000.624" x2="1" y2="1000.624" gradientTransform="matrix(0 -214.0841 -214.0841 0 215339.3438 523.9951)">
		<stop  offset="0" style="stop-color:#6C6361"/>
		<stop  offset="1" style="stop-color:#534B48"/>
	</linearGradient>
	<rect x="1030.288" y="311.336" clip-path="url(#SVGID_47_)" fill="url(#SVGID_48_)" width="182.41" height="218.796"/>
</g>
<g>
	<defs>
		<rect id="SVGID_49_" x="713.06" y="314.936" width="27.779" height="211.064"/>
	</defs>
	<clipPath id="SVGID_50_">
		<use xlink:href="#SVGID_49_"  overflow="visible"/>
	</clipPath>
	
		<linearGradient id="SVGID_51_" gradientUnits="userSpaceOnUse" x1="0" y1="1000.6201" x2="1" y2="1000.6201" gradientTransform="matrix(0 -214.0841 -214.0841 0 214943.8438 523.9951)">
		<stop  offset="0" style="stop-color:#6C6361"/>
		<stop  offset="1" style="stop-color:#534B48"/>
	</linearGradient>
	<rect x="713.06" y="314.936" clip-path="url(#SVGID_50_)" fill="url(#SVGID_51_)" width="27.779" height="211.064"/>
</g>
<g>
	<defs>
		<path id="SVGID_52_" d="M163.681,619.507c-0.07,0.799-1.634,19.858,5.691,44.606c6.759,22.832,22.701,55.017,60.267,78.688
			c53.042,33.419,63.36,83.123,63.457,83.611c0.522,2.711,2.897,4.596,5.56,4.595c0.356,0,0.717-0.033,1.08-0.104
			c3.074-0.592,5.086-3.564,4.493-6.641c-0.43-2.225-11.171-54.905-68.544-91.056c-27.62-17.403-46.229-41.585-55.309-71.872
			c-6.814-22.727-5.419-40.596-5.399-40.843c0.27-3.116-2.036-5.863-5.151-6.136c-0.168-0.016-0.334-0.022-0.5-0.022
			C166.427,614.335,163.94,616.556,163.681,619.507"/>
	</defs>
	<clipPath id="SVGID_53_">
		<use xlink:href="#SVGID_52_"  overflow="visible"/>
	</clipPath>
	
		<linearGradient id="SVGID_54_" gradientUnits="userSpaceOnUse" x1="0" y1="1000.6201" x2="1" y2="1000.6201" gradientTransform="matrix(140.8376 0 0 -140.8376 163.5 141647.5313)">
		<stop  offset="0" style="stop-color:#514B49"/>
		<stop  offset="1" style="stop-color:#3A3432"/>
	</linearGradient>
	<rect x="162.047" y="614.334" clip-path="url(#SVGID_53_)" fill="url(#SVGID_54_)" width="142.775" height="216.674"/>
</g>
<g>
	<defs>
		<path id="SVGID_55_" d="M209.688,619.437c-0.217,2.164-4.817,53.374,40.447,84.251c27.501,18.76,40.588,38.403,46.724,51.579
			c6.619,14.214,6.8,24.17,6.801,24.239c0.001,3.13,2.539,5.667,5.669,5.667h0.003c3.131-0.001,5.668-2.542,5.666-5.672
			c-0.001-1.852-0.688-45.763-58.474-85.182c-16.544-11.285-27.553-27.037-32.725-46.821c-3.914-14.975-2.843-26.786-2.828-26.938
			c0.308-3.111-1.962-5.884-5.075-6.198c-0.193-0.02-0.385-0.029-0.575-0.029C212.457,614.333,209.982,616.514,209.688,619.437"/>
	</defs>
	<clipPath id="SVGID_56_">
		<use xlink:href="#SVGID_55_"  overflow="visible"/>
	</clipPath>
	
		<linearGradient id="SVGID_57_" gradientUnits="userSpaceOnUse" x1="0" y1="1000.6201" x2="1" y2="1000.6201" gradientTransform="matrix(105.5369 0 0 -105.5369 209.4375 106302.1094)">
		<stop  offset="0" style="stop-color:#514B49"/>
		<stop  offset="1" style="stop-color:#3A3432"/>
	</linearGradient>
	<rect x="204.871" y="614.333" clip-path="url(#SVGID_56_)" fill="url(#SVGID_57_)" width="110.129" height="170.84"/>
</g>
<g>
	<defs>
		<path id="SVGID_58_" d="M259.62,614.335c-3.131,0.022-5.65,2.578-5.627,5.71c0.008,1.158,0.457,28.688,22.136,55.263
			c19.547,23.961,25.184,43.521,25.235,43.703c0.694,2.515,2.975,4.163,5.462,4.163c0.499,0,1.006-0.065,1.511-0.206
			c3.019-0.831,4.79-3.953,3.957-6.972c-0.243-0.882-6.201-21.896-27.38-47.857c-18.978-23.264-19.576-47.769-19.583-48.188
			c-0.029-3.112-2.561-5.615-5.668-5.615H259.62z"/>
	</defs>
	<clipPath id="SVGID_59_">
		<use xlink:href="#SVGID_58_"  overflow="visible"/>
	</clipPath>
	
		<linearGradient id="SVGID_60_" gradientUnits="userSpaceOnUse" x1="-4.882813e-004" y1="1000.6201" x2="0.9995" y2="1000.6201" gradientTransform="matrix(58.5067 0 0 -58.5067 254 59211.7188)">
		<stop  offset="0" style="stop-color:#514B49"/>
		<stop  offset="1" style="stop-color:#3A3432"/>
	</linearGradient>
	<rect x="253.97" y="614.335" clip-path="url(#SVGID_59_)" fill="url(#SVGID_60_)" width="59.157" height="108.839"/>
</g>
<g>
	<defs>
		<rect id="SVGID_61_" y="0.004" width="1213.54" height="1000.616"/>
	</defs>
	<clipPath id="SVGID_62_">
		<use xlink:href="#SVGID_61_"  overflow="visible"/>
	</clipPath>
	<path clip-path="url(#SVGID_62_)" fill="#9FC6E9" d="M294.662,0.004v865.484h47.667c0,0,69-621.484,66-638.484
		S314.995,2.004,294.662,0.004"/>
	<path clip-path="url(#SVGID_62_)" fill="#C0E4F8" d="M322.293,101.712v686.564c0,0,46.033-469.23,49.033-530.23
		C374.222,199.176,322.293,101.712,322.293,101.712"/>
	<path clip-path="url(#SVGID_62_)" fill="#F49E47" d="M351.93,890.307H237.395c-6.6,0-12-5.4-12-12V847.64c0-6.601,5.4-12,12-12
		H351.93c6.6,0,12,5.399,12,12v30.667C363.93,884.906,358.53,890.307,351.93,890.307"/>
	<path clip-path="url(#SVGID_62_)" fill="#FFD248" d="M339.93,878.492h-90.536c-6.6,0-12-5.4-12-12v-14.117c0-6.6,5.4-12,12-12
		h90.536c6.6,0,12,5.4,12,12v14.117C351.93,873.092,346.53,878.492,339.93,878.492"/>
	<path clip-path="url(#SVGID_62_)" fill="#F49E47" d="M318.329,976.953c0,13.071-10.596,23.667-23.667,23.667
		c-13.07,0-23.666-10.596-23.666-23.667c0-13.07,10.596-23.667,23.666-23.667C307.733,953.286,318.329,963.883,318.329,976.953"/>
	<path clip-path="url(#SVGID_62_)" fill="#FFD248" d="M305.996,974.453c0,7.456-6.044,13.5-13.5,13.5s-13.5-6.044-13.5-13.5
		s6.044-13.5,13.5-13.5S305.996,966.997,305.996,974.453"/>
</g>
<g>
	<defs>
		<path id="SVGID_63_" d="M651.298,260.779c0,21.892,17.747,39.639,39.64,39.639c21.892,0,39.64-17.747,39.64-39.639
			c0-21.893-17.748-39.64-39.64-39.64C669.045,221.139,651.298,238.886,651.298,260.779"/>
	</defs>
	<clipPath id="SVGID_64_">
		<use xlink:href="#SVGID_63_"  overflow="visible"/>
	</clipPath>
	
		<linearGradient id="SVGID_65_" gradientUnits="userSpaceOnUse" x1="0" y1="1000.6201" x2="1" y2="1000.6201" gradientTransform="matrix(0 -148.3374 -148.3374 0 149120.4375 298.6201)">
		<stop  offset="0" style="stop-color:#6C6361"/>
		<stop  offset="1" style="stop-color:#534B48"/>
	</linearGradient>
	<rect x="651.298" y="221.139" clip-path="url(#SVGID_64_)" fill="url(#SVGID_65_)" width="79.279" height="79.279"/>
</g>
<g>
	<defs>
		<path id="SVGID_66_" d="M723.322,260.779c0,21.892,17.747,39.639,39.639,39.639c21.893,0,39.639-17.747,39.639-39.639
			c0-21.893-17.746-39.64-39.639-39.64C741.069,221.139,723.322,238.886,723.322,260.779"/>
	</defs>
	<clipPath id="SVGID_67_">
		<use xlink:href="#SVGID_66_"  overflow="visible"/>
	</clipPath>
	
		<linearGradient id="SVGID_68_" gradientUnits="userSpaceOnUse" x1="0" y1="1000.6201" x2="1" y2="1000.6201" gradientTransform="matrix(0 -148.3374 -148.3374 0 149192.4375 298.6201)">
		<stop  offset="0" style="stop-color:#6C6361"/>
		<stop  offset="1" style="stop-color:#534B48"/>
	</linearGradient>
	<rect x="723.322" y="221.139" clip-path="url(#SVGID_67_)" fill="url(#SVGID_68_)" width="79.277" height="79.279"/>
</g>
<g>
	<defs>
		<path id="SVGID_69_" d="M687.309,203.575c0,21.892,17.747,39.639,39.641,39.639c21.892,0,39.64-17.747,39.64-39.639
			c0-21.893-17.748-39.64-39.64-39.64C705.056,163.935,687.309,181.682,687.309,203.575"/>
	</defs>
	<clipPath id="SVGID_70_">
		<use xlink:href="#SVGID_69_"  overflow="visible"/>
	</clipPath>
	
		<linearGradient id="SVGID_71_" gradientUnits="userSpaceOnUse" x1="0" y1="1000.6211" x2="1" y2="1000.6211" gradientTransform="matrix(0 -148.3374 -148.3374 0 149156.4375 298.6201)">
		<stop  offset="0" style="stop-color:#6C6361"/>
		<stop  offset="1" style="stop-color:#534B48"/>
	</linearGradient>
	<rect x="687.309" y="163.935" clip-path="url(#SVGID_70_)" fill="url(#SVGID_71_)" width="79.28" height="79.279"/>
</g>
</svg>
